<?xml version="1.0" encoding="utf-8"?>
<!-- Generator: Adobe Illustrator 16.0.0, SVG Export Plug-In . SVG Version: 6.00 Build 0)  -->
<!DOCTYPE svg PUBLIC "-//W3C//DTD SVG 1.1//EN" "http://www.w3.org/Graphics/SVG/1.1/DTD/svg11.dtd">
<svg version="1.1" id="Capa_1" xmlns="http://www.w3.org/2000/svg" xmlns:xlink="http://www.w3.org/1999/xlink" x="0px" y="0px"
	 width="1280px" height="1653px" viewBox="0 0 1280 1653" enable-background="new 0 0 1280 1653" xml:space="preserve">
<path fill="#1A1A1A" d="M1239.105,1352.377l-304.643-316.843c78.329-93.114,121.246-210.271,121.246-332.234
	c0-284.959-231.841-516.8-516.8-516.8C253.951,186.5,22.11,418.341,22.11,703.3c0,284.958,231.841,516.799,516.799,516.799
	c106.978,0,208.922-32.266,296.081-93.518l306.957,319.247c12.83,13.324,30.087,20.672,48.579,20.672
	c17.504,0,34.108-6.674,46.714-18.807C1264.024,1421.92,1264.878,1379.184,1239.105,1352.377z M538.909,321.317
	c210.63,0,381.982,171.353,381.982,381.982c0,210.629-171.353,381.981-381.982,381.981c-210.629,0-381.982-171.353-381.982-381.981
	C156.927,492.67,328.28,321.317,538.909,321.317z"/>
<rect x="347.5" y="718" fill="#1A1A1A" width="2" height="2"/>
</svg>
